<svg width="70" height="51" viewBox="0 0 70 51" fill="none" xmlns="http://www.w3.org/2000/svg">
<g clip-path="url(#clip0_0_385)">
<path d="M5.44 38.408C4.46533 38.408 3.64933 38.068 2.992 37.388C2.35733 36.6853 2.04 35.8467 2.04 34.872C2.04 33.8747 2.35733 33.036 2.992 32.356C3.64933 31.676 4.46533 31.336 5.44 31.336C6.43733 31.336 7.25333 31.676 7.888 32.356C8.52267 33.036 8.84 33.8747 8.84 34.872C8.84 35.8467 8.52267 36.6853 7.888 37.388C7.25333 38.068 6.43733 38.408 5.44 38.408ZM23.5386 38.408C21.476 38.408 19.5946 38 17.8946 37.184C16.2173 36.3453 14.88 35.0873 13.8826 33.41C12.8853 31.7327 12.3866 29.636 12.3866 27.12C12.3866 25.2613 12.6813 23.618 13.2706 22.19C13.86 20.7393 14.6646 19.5153 15.6846 18.518C16.7046 17.5207 17.872 16.7727 19.1866 16.274C20.524 15.7527 21.9293 15.492 23.4026 15.492C25.0346 15.492 26.4513 15.7867 27.6526 16.376C28.854 16.9427 29.84 17.6227 30.6106 18.416L27.5506 22.156C27.0066 21.68 26.4286 21.2947 25.8166 21C25.2273 20.6827 24.4906 20.524 23.6066 20.524C22.1106 20.524 20.864 21.0907 19.8666 22.224C18.8693 23.3347 18.3706 24.8987 18.3706 26.916C18.3706 28.9787 18.8353 30.5767 19.7646 31.71C20.7166 32.8207 22.1786 33.376 24.1506 33.376C24.468 33.376 24.774 33.342 25.0686 33.274C25.386 33.206 25.6466 33.104 25.8506 32.968V29.908H22.5866V25.148H31.0186V35.688C30.248 36.436 29.194 37.082 27.8566 37.626C26.542 38.1473 25.1026 38.408 23.5386 38.408ZM35.3191 38V15.9H41.1671V24.128H47.7631V15.9H53.6111V38H47.7631V29.228H41.1671V38H35.3191Z" fill="white"/>
</g>
<defs>
<clipPath id="clip0_0_385">
<rect width="70" height="51" fill="white"/>
</clipPath>
</defs>
</svg>
