<svg width="280" height="51" viewBox="0 0 280 51" fill="none" xmlns="http://www.w3.org/2000/svg">
<g clip-path="url(#clip0_0_385)">
<path d="M5.44 38.408C4.46533 38.408 3.64933 38.068 2.992 37.388C2.35733 36.6853 2.04 35.8467 2.04 34.872C2.04 33.8747 2.35733 33.036 2.992 32.356C3.64933 31.676 4.46533 31.336 5.44 31.336C6.43733 31.336 7.25333 31.676 7.888 32.356C8.52267 33.036 8.84 33.8747 8.84 34.872C8.84 35.8467 8.52267 36.6853 7.888 37.388C7.25333 38.068 6.43733 38.408 5.44 38.408ZM23.5386 38.408C21.476 38.408 19.5946 38 17.8946 37.184C16.2173 36.3453 14.88 35.0873 13.8826 33.41C12.8853 31.7327 12.3866 29.636 12.3866 27.12C12.3866 25.2613 12.6813 23.618 13.2706 22.19C13.86 20.7393 14.6646 19.5153 15.6846 18.518C16.7046 17.5207 17.872 16.7727 19.1866 16.274C20.524 15.7527 21.9293 15.492 23.4026 15.492C25.0346 15.492 26.4513 15.7867 27.6526 16.376C28.854 16.9427 29.84 17.6227 30.6106 18.416L27.5506 22.156C27.0066 21.68 26.4286 21.2947 25.8166 21C25.2273 20.6827 24.4906 20.524 23.6066 20.524C22.1106 20.524 20.864 21.0907 19.8666 22.224C18.8693 23.3347 18.3706 24.8987 18.3706 26.916C18.3706 28.9787 18.8353 30.5767 19.7646 31.71C20.7166 32.8207 22.1786 33.376 24.1506 33.376C24.468 33.376 24.774 33.342 25.0686 33.274C25.386 33.206 25.6466 33.104 25.8506 32.968V29.908H22.5866V25.148H31.0186V35.688C30.248 36.436 29.194 37.082 27.8566 37.626C26.542 38.1473 25.1026 38.408 23.5386 38.408ZM34.8431 38V21H39.6031L40.0111 23.924H40.1471C40.7818 22.768 41.5298 21.9293 42.3911 21.408C43.2751 20.864 44.1364 20.592 44.9751 20.592C45.4964 20.592 45.9158 20.626 46.2331 20.694C46.5731 20.7393 46.8564 20.8187 47.0831 20.932L46.1311 25.964C45.8364 25.896 45.5418 25.8393 45.2471 25.794C44.9524 25.726 44.6124 25.692 44.2271 25.692C43.6151 25.692 42.9691 25.9073 42.2891 26.338C41.6318 26.746 41.0991 27.4827 40.6911 28.548V38H34.8431ZM56.27 38.408C54.8193 38.408 53.448 38.0567 52.156 37.354C50.8867 36.6513 49.844 35.6427 49.028 34.328C48.2347 32.9907 47.838 31.3813 47.838 29.5C47.838 27.6187 48.2347 26.0207 49.028 24.706C49.844 23.3687 50.8867 22.3487 52.156 21.646C53.448 20.9433 54.8193 20.592 56.27 20.592C57.7207 20.592 59.0807 20.9433 60.35 21.646C61.642 22.3487 62.6847 23.3687 63.478 24.706C64.294 26.0207 64.702 27.6187 64.702 29.5C64.702 31.3813 64.294 32.9907 63.478 34.328C62.6847 35.6427 61.642 36.6513 60.35 37.354C59.0807 38.0567 57.7207 38.408 56.27 38.408ZM56.27 33.716C57.154 33.716 57.7773 33.342 58.14 32.594C58.5253 31.8233 58.718 30.792 58.718 29.5C58.718 28.208 58.5253 27.188 58.14 26.44C57.7773 25.6693 57.154 25.284 56.27 25.284C55.386 25.284 54.7513 25.6693 54.366 26.44C54.0033 27.188 53.822 28.208 53.822 29.5C53.822 30.792 54.0033 31.8233 54.366 32.594C54.7513 33.342 55.386 33.716 56.27 33.716ZM70.3394 38L66.2594 21H72.0394L73.3314 28.14C73.4674 28.9787 73.5807 29.8287 73.6714 30.69C73.762 31.5513 73.8754 32.424 74.0114 33.308H74.1474C74.2834 32.424 74.4194 31.5513 74.5554 30.69C74.714 29.806 74.8954 28.956 75.0994 28.14L76.6634 21H81.6274L83.2594 28.14C83.4634 28.9787 83.6447 29.8287 83.8034 30.69C83.962 31.5513 84.1207 32.424 84.2794 33.308H84.4154C84.5514 32.424 84.6647 31.5513 84.7554 30.69C84.846 29.8287 84.9594 28.9787 85.0954 28.14L86.3874 21H91.7594L87.8834 38H81.0834L79.8594 32.084C79.7234 31.2907 79.5874 30.4973 79.4514 29.704C79.3154 28.888 79.1794 28.0153 79.0434 27.086H78.9074C78.7714 28.0153 78.6467 28.888 78.5334 29.704C78.42 30.4973 78.2954 31.2907 78.1594 32.084L77.0034 38H70.3394ZM101.546 38.408C99.3476 38.408 97.7496 37.7733 96.7523 36.504C95.7776 35.212 95.2903 33.5347 95.2903 31.472V25.556H93.0463V21.204L95.6303 21L96.3103 16.58H101.138V21H105.014V25.556H101.138V31.37C101.138 32.2993 101.342 32.9453 101.75 33.308C102.158 33.6707 102.634 33.852 103.178 33.852C103.45 33.852 103.711 33.8293 103.96 33.784C104.232 33.716 104.47 33.648 104.674 33.58L105.558 37.796C105.128 37.932 104.584 38.068 103.926 38.204C103.269 38.34 102.476 38.408 101.546 38.408ZM108.156 38V14.336H114.004V19.844L113.732 22.768C114.321 22.2467 115.024 21.7593 115.84 21.306C116.678 20.83 117.676 20.592 118.832 20.592C120.713 20.592 122.062 21.2267 122.878 22.496C123.716 23.7427 124.136 25.42 124.136 27.528V38H118.288V28.276C118.288 27.188 118.152 26.4627 117.88 26.1C117.608 25.7373 117.177 25.556 116.588 25.556C116.044 25.556 115.59 25.6693 115.228 25.896C114.865 26.1227 114.457 26.44 114.004 26.848V38H108.156ZM135.227 38V15.9H141.075V24.128H147.671V15.9H153.519V38H147.671V29.228H141.075V38H135.227ZM163.095 38.408C161.236 38.408 159.888 37.7847 159.049 36.538C158.21 35.2687 157.791 33.58 157.791 31.472V21H163.639V30.724C163.639 31.812 163.775 32.5373 164.047 32.9C164.342 33.2627 164.772 33.444 165.339 33.444C165.883 33.444 166.336 33.3307 166.699 33.104C167.062 32.8773 167.424 32.492 167.787 31.948V21H173.635V38H168.875L168.467 35.756H168.331C167.651 36.572 166.892 37.218 166.053 37.694C165.237 38.17 164.251 38.408 163.095 38.408ZM177.583 38V21H182.343L182.751 23.04H182.887C183.567 22.3827 184.338 21.816 185.199 21.34C186.083 20.8413 187.103 20.592 188.259 20.592C190.141 20.592 191.489 21.2267 192.305 22.496C193.144 23.7427 193.563 25.42 193.563 27.528V38H187.715V28.276C187.715 27.188 187.579 26.4627 187.307 26.1C187.035 25.7373 186.605 25.556 186.015 25.556C185.471 25.556 185.018 25.6693 184.655 25.896C184.293 26.1227 183.885 26.44 183.431 26.848V38H177.583ZM204.376 38.408C202.178 38.408 200.58 37.7733 199.582 36.504C198.608 35.212 198.12 33.5347 198.12 31.472V25.556H195.876V21.204L198.46 21L199.14 16.58H203.968V21H207.844V25.556H203.968V31.37C203.968 32.2993 204.172 32.9453 204.58 33.308C204.988 33.6707 205.464 33.852 206.008 33.852C206.28 33.852 206.541 33.8293 206.79 33.784C207.062 33.716 207.3 33.648 207.504 33.58L208.388 37.796C207.958 37.932 207.414 38.068 206.756 38.204C206.099 38.34 205.306 38.408 204.376 38.408ZM218.21 38.408C216.555 38.408 215.059 38.0567 213.722 37.354C212.407 36.6513 211.364 35.6427 210.594 34.328C209.823 32.9907 209.438 31.3813 209.438 29.5C209.438 27.664 209.823 26.0887 210.594 24.774C211.387 23.4367 212.407 22.4053 213.654 21.68C214.9 20.9547 216.215 20.592 217.598 20.592C219.275 20.592 220.658 20.966 221.746 21.714C222.856 22.4393 223.672 23.4253 224.194 24.672C224.738 25.9187 225.01 27.3013 225.01 28.82C225.01 29.3187 224.976 29.806 224.908 30.282C224.862 30.7353 224.817 31.064 224.772 31.268H215.082C215.354 32.288 215.841 33.002 216.544 33.41C217.246 33.7953 218.074 33.988 219.026 33.988C220.114 33.988 221.27 33.648 222.494 32.968L224.398 36.436C223.491 37.0707 222.471 37.558 221.338 37.898C220.204 38.238 219.162 38.408 218.21 38.408ZM215.014 27.46H220.046C220.046 26.8027 219.876 26.236 219.536 25.76C219.218 25.2613 218.618 25.012 217.734 25.012C217.099 25.012 216.532 25.2047 216.034 25.59C215.535 25.9753 215.195 26.5987 215.014 27.46ZM228.218 38V21H232.978L233.386 23.924H233.522C234.157 22.768 234.905 21.9293 235.766 21.408C236.65 20.864 237.511 20.592 238.35 20.592C238.871 20.592 239.291 20.626 239.608 20.694C239.948 20.7393 240.231 20.8187 240.458 20.932L239.506 25.964C239.211 25.896 238.917 25.8393 238.622 25.794C238.327 25.726 237.987 25.692 237.602 25.692C236.99 25.692 236.344 25.9073 235.664 26.338C235.007 26.746 234.474 27.4827 234.066 28.548V38H228.218ZM247.333 38.408C246.245 38.408 245.089 38.1927 243.865 37.762C242.664 37.3087 241.621 36.7307 240.737 36.028L243.321 32.424C244.862 33.5573 246.245 34.124 247.469 34.124C248.081 34.124 248.512 34.0447 248.761 33.886C249.033 33.7047 249.169 33.444 249.169 33.104C249.169 32.6507 248.84 32.2993 248.183 32.05C247.526 31.778 246.766 31.472 245.905 31.132C245.248 30.86 244.59 30.52 243.933 30.112C243.298 29.6813 242.766 29.1373 242.335 28.48C241.904 27.8227 241.689 27.0293 241.689 26.1C241.689 24.4227 242.312 23.0853 243.559 22.088C244.806 21.0907 246.426 20.592 248.421 20.592C249.826 20.592 251.028 20.83 252.025 21.306C253.045 21.7593 253.929 22.2693 254.677 22.836L252.093 26.304C251.481 25.8507 250.88 25.4993 250.291 25.25C249.702 25.0007 249.146 24.876 248.625 24.876C247.628 24.876 247.129 25.1933 247.129 25.828C247.129 26.2587 247.435 26.5987 248.047 26.848C248.682 27.0747 249.418 27.3467 250.257 27.664C250.937 27.9133 251.606 28.242 252.263 28.65C252.943 29.058 253.498 29.5907 253.929 30.248C254.382 30.9053 254.609 31.744 254.609 32.764C254.609 34.3507 253.986 35.688 252.739 36.776C251.515 37.864 249.713 38.408 247.333 38.408Z" fill="black"/>
</g>
<defs>
<clipPath id="clip0_0_385">
<rect width="280" height="51" fill="white"/>
</clipPath>
</defs>
</svg>
